<?xml version="1.0" encoding="UTF-8"?>
<svg width="140px" height="140px" viewBox="0 0 140 140" version="1.1" xmlns="http://www.w3.org/2000/svg" xmlns:xlink="http://www.w3.org/1999/xlink">
    <!-- Generator: Sketch 46.2 (44496) - http://www.bohemiancoding.com/sketch -->
    <title>CartEmpty</title>
    <desc>Created with Sketch.</desc>
    <defs></defs>
    <g id="Logos" stroke="none" stroke-width="1" fill="none" fill-rule="evenodd">
        <g id="CartEmpty" fill="#2D333A">
            <path d="M25,99 C25,113.359403 36.6405965,125 51,125 L90,125 C104.359403,125 116,113.359403 116,99 L116,45 L25,45 L25,99 Z M23,39 L118,39 C120.209139,39 122,40.790861 122,43 L122,99 C122,116.673112 107.673112,131 90,131 L51,131 C33.326888,131 19,116.673112 19,99 L19,43 C19,40.790861 20.790861,39 23,39 Z M36,39 L36,45 L52,45 L52,39 L36,39 Z M88,39 L88,45 L104,45 L104,39 L88,39 Z" id="Combined-Shape" fill-rule="nonzero"></path>
            <path d="M41,54.581517 C38.0681697,55.7682918 36,58.6426224 36,62 C36,66.418278 39.581722,70 44,70 C48.418278,70 52,66.418278 52,62 C52,58.6426224 49.9318303,55.7682918 47,54.581517 L47,36 C47,23.2974508 57.2974508,13 70,13 C82.7025492,13 93,23.2974508 93,36 L93,54.581517 C90.0681697,55.7682918 88,58.6426224 88,62 C88,66.418278 91.581722,70 96,70 C100.418278,70 104,66.418278 104,62 C104,58.6426224 101.93183,55.7682918 99,54.581517 L99,36 C99,19.9837423 86.0162577,7 70,7 C53.9837423,7 41,19.9837423 41,36 L41,54.581517 Z" id="Combined-Shape"></path>
        </g>
    </g>
</svg>