<?xml version="1.0" encoding="UTF-8"?>
<svg width="140px" height="140px" viewBox="0 0 140 140" version="1.1" xmlns="http://www.w3.org/2000/svg" xmlns:xlink="http://www.w3.org/1999/xlink">
    <!-- Generator: Sketch 46.2 (44496) - http://www.bohemiancoding.com/sketch -->
    <title>Logo</title>
    <desc>Created with Sketch.</desc>
    <defs>
        <linearGradient x1="15.0091287%" y1="92.0798858%" x2="85.069499%" y2="4.62161234%" id="linearGradient-1">
            <stop stop-color="#31A233" offset="0%"></stop>
            <stop stop-color="#5CCE63" offset="100%"></stop>
        </linearGradient>
    </defs>
    <g id="Logos" stroke="none" stroke-width="1" fill="none" fill-rule="evenodd">
        <g id="Logo" fill-rule="nonzero" fill="url(#linearGradient-1)">
            <path d="M133.215536,51.0243069 C147.447306,98.4635397 136.414926,118.983766 88.9756931,133.215536 C41.5364603,147.447306 21.016234,136.414926 6.78446416,88.9756931 C-7.44730569,41.5364603 3.58507404,21.016234 51.0243069,6.78446416 C98.4635397,-7.44730569 118.983766,3.58507404 133.215536,51.0243069 Z M39.6085798,94.4344233 C38.0863006,93.3050973 36.202395,92.6371742 34.1624143,92.6371742 C29.1007723,92.6371742 25,96.7492124 25,101.818587 C25,106.887962 29.1007723,111 34.1624143,111 C39.2240562,111 43.3248285,106.887962 43.3248285,101.818587 C43.3248285,101.770002 43.3244519,101.721506 43.3237013,101.6731 C47.3989607,99.0871383 51.3305425,95.7486985 55.1201675,91.6700423 C59.4031685,86.6592848 61.6916066,82.6998998 65.8894806,74.0816963 C66.5887064,72.6461911 66.8664041,72.0786503 67.2420101,71.3220021 C70.9937885,63.7641444 74.0520355,59.1537406 78.9903475,54.4412099 C84.9246119,48.7782621 91.6550645,45.0844409 99.2500928,43.3297463 C100.897699,45.7633655 103.680767,47.3628258 106.837586,47.3628258 C111.899228,47.3628258 116,43.2507876 116,38.1814129 C116,33.1120382 111.899228,29 106.837586,29 C102.788425,29 99.3541743,31.6315059 98.1422821,35.2794932 C88.852232,37.2891115 80.5832022,41.7330659 73.4095473,48.5787388 C67.671482,54.0544578 64.1324101,59.3897203 59.9984563,67.7174603 C59.6106652,68.498655 59.3274504,69.0774713 58.6191095,70.5316899 C54.7268006,78.5225705 52.7016155,82.0329088 49.1397571,86.2161076 C46.0194477,89.5660356 42.8419045,92.3020244 39.6085798,94.4344233 Z" id="Combined-Shape"></path>
        </g>
    </g>
</svg>